<svg xmlns="http://www.w3.org/2000/svg" viewBox="0 0 293.36 39.82"><defs><style>.cls-1{fill:#666;}.cls-2{fill:#008bd5;}</style></defs><title>アセット 3</title><g id="レイヤー_2" data-name="レイヤー 2"><g id="ol"><path class="cls-1" d="M139.89,21.8v1.25h2.38v1.71h-2.38A11.13,11.13,0,0,0,142,26.83l-1.15,1.33a3.43,3.43,0,0,1-.91-.84v3.19H138V27.1A13.3,13.3,0,0,1,136,29.54l-1.6-1a9.74,9.74,0,0,0,2.85-3.74h-2.11V23.05H138V21.8h-3V20.15h1.85c-.11-.38-.36-1.33-.61-2h-.88V16.59h2.8V15l2,.18c.27,0,.38.07.38.16s-.09.18-.17.24-.18.16-.18.27v.7h2.33v1.59h-.57a10.89,10.89,0,0,1-.72,2h1.47V21.8ZM138,18.18a17.61,17.61,0,0,1,.62,2h.67a15.94,15.94,0,0,0,.57-2Zm11.77-1a4.33,4.33,0,0,0-.79.17,32.18,32.18,0,0,1-3.94.62c0,.58,0,.84,0,2.22h5v1.92h-1.61V30.4h-1.87V22.12H145c-.19,4.41-.66,6.11-2.16,8.42l-1.9-.62a6.42,6.42,0,0,0,1.36-2.08,18,18,0,0,0,.88-6.7c0-1.6,0-3.19-.09-4.79l1.11.07a3.57,3.57,0,0,0,.54,0,21.5,21.5,0,0,0,4.21-1L150,16.67a.84.84,0,0,1,.18.38C150.19,17.19,150.08,17.19,149.78,17.19Z"/><path class="cls-1" d="M160.39,26.67v3.82h-2.22V26.67h-6.58V24.79h6.58V23L159,23l-.75-.76A10.24,10.24,0,0,0,159.74,21a11.71,11.71,0,0,0,1.78-2.43h-5.15l.69.32c.25.13.35.25.35.36a.16.16,0,0,1-.09.16s-.34.13-.39.18-.3.47-.36.55a13.83,13.83,0,0,0,2.26,1.3l-1.17,1.64a10.79,10.79,0,0,1-2.16-1.39,21.37,21.37,0,0,1-2.14,2.42L151.57,23A10.88,10.88,0,0,0,155,18.54h-2.6V16.75h5.83V15l2.06.11c.07,0,.46,0,.46.19a.32.32,0,0,1-.14.26.31.31,0,0,0-.18.28v.92h5.82v1.79h-2.83c.16.09.5.28.5.5a.14.14,0,0,1-.07.13,3.18,3.18,0,0,0-.37.14s-.34.52-.42.61a10.4,10.4,0,0,0,3.59,2.7l-1.42,1.54A13,13,0,0,1,162,21.32a11.62,11.62,0,0,1-1.83,1.77c.32.05.46.07.46.23s0,.09-.08.15-.2.19-.2.3v1h6.68v1.88Z"/><path class="cls-1" d="M183.79,30.06a12.33,12.33,0,0,1-3.37-3.19v3.64h-2.11V26.57a14.67,14.67,0,0,1-3.53,3.79l-1.88-1.43c-.06,1-.22,1.67-1.85,1.67h-1l-1-2.14a9.87,9.87,0,0,0,1.3.13c.36,0,.52-.2.52-.57V24.63l-.91.3c-.11,0-.18.09-.32.35s-.16.28-.31.28-.18-.16-.21-.45L168.79,23c.77-.18,1.13-.27,2.06-.55v-2.8h-1.72v-1.9h1.72V15l2,.13c.3,0,.48.11.48.29s-.12.21-.21.28-.25.24-.25.31v1.66h1.68v1l1.7-.65a10.13,10.13,0,0,1,1.38,3.23l-1.81.66a11.5,11.5,0,0,0-1.27-3v.68H172.9v2.17c.89-.3,1.2-.41,1.66-.59l.11,1.68h3.64V21.44l2.09.25c.31,0,.45.09.45.22s-.11.21-.21.28-.22.16-.22.25v.43h4.27v1.89h-4a12.3,12.3,0,0,0,4.66,3.72Zm-9.35-5.3V23.23c-.68.29-1.19.49-1.54.63v4.86a10.92,10.92,0,0,0,4.64-4ZM184.1,17c-.09,0-.54-.22-.65-.22s-2.58.58-3.06.66a51.9,51.9,0,0,1-5.25.65l-.85-1.85a25.14,25.14,0,0,0,5.34-.55,19.66,19.66,0,0,0,3.09-.93l1.41,1.7a.69.69,0,0,1,.18.38C184.31,17,184.15,17,184.1,17Zm-5.33,4.15a9.61,9.61,0,0,0-1.16-2.88l1.86-.57a8.06,8.06,0,0,1,1,3Zm5.81-2.43c-.25.05-.27.09-.41.39a21,21,0,0,1-1.74,3.21l-1.65-.88a18.16,18.16,0,0,0,1.65-4l2,.68c.22.08.34.18.34.34S184.71,18.68,184.58,18.72Z"/><path class="cls-1" d="M197.72,30.45l-1-1.95a4.7,4.7,0,0,0,.82.07c.74,0,1-.14,1-.64V24.38H195.3v5.11h-2V24.38H190a13.79,13.79,0,0,1-1.47,5.93l-1.87-.66c1.19-2,1.44-4.09,1.44-8.57,0-1.88-.07-3.76-.24-5.64h12.74V28.77C200.56,29.72,200.55,30.26,197.72,30.45Zm-4.45-13.27H190c0,.64,0,1.07,0,1.73h3.22Zm0,3.42h-3.21c0,1.56,0,1.74,0,2.09h3.24Zm5.25-3.42H195.3v1.73h3.22Zm0,3.42H195.3v2.09h3.22Z"/><path class="cls-1" d="M213.41,21.35c-.19,5.11-1.38,6.9-4.85,9L207.09,29c3.24-1.78,4.26-3.61,4.33-7.62H208v4.1h-2.13v-4.1h-3.32v-2h3.32V15.89l2,.21c.41,0,.53.07.53.25s0,.11-.14.18-.23.18-.23.27v2.51h3.38c0-1.36,0-2.56,0-3.69l1.84.25c.15,0,.56.07.56.28s0,.13-.16.22-.16.14-.2.23v2.71h3v2Z"/><path class="cls-1" d="M230.11,17.25c-.26,0-.3.05-.55.32a23.75,23.75,0,0,1-3,2.8v9.55h-2.24V22a32.51,32.51,0,0,1-4.51,2.55L218.29,23a27.88,27.88,0,0,0,10.39-7.61l1.56,1.29c.07.05.3.28.3.43S230.47,17.23,230.11,17.25Z"/><path class="cls-1" d="M243.79,25.69a18.33,18.33,0,0,0-5.27-3.59v7.74H236.4V15.65l2.16.38c.05,0,.43.07.43.29s-.47.39-.47.48v4.71l.84-1.32a15.19,15.19,0,0,1,3,1.63A21.31,21.31,0,0,1,245.2,24Z"/><path class="cls-1" d="M255.27,27.49l.15-.19,2.87-3.36c.87-1,2.07-2.45,2.07-4.24a4.3,4.3,0,0,0-8.55-.12h2.29a1.76,1.76,0,0,1,1.83-1.69,1.74,1.74,0,0,1,1.85,1.81,4.37,4.37,0,0,1-1.32,2.83L251.83,28v1.66h8.36V27.49h-4.92Z"/><path class="cls-1" d="M267,15.78c-1.7,0-4.56.56-4.56,4.32v5.4c0,2.71,1.7,4.32,4.56,4.32s4.57-1.61,4.57-4.32V20.08C271.59,16.34,268.73,15.78,267,15.78Zm2,9.48c0,2-1.07,2.41-2,2.41s-2-.42-2-2.41V20.34c0-2,1.08-2.41,2-2.41s2,.42,2,2.41Z"/><path class="cls-1" d="M277,27.49l.16-.19,2.86-3.36c.87-1,2.07-2.45,2.07-4.24a4.29,4.29,0,0,0-8.54-.12h2.28a1.76,1.76,0,0,1,1.84-1.69,1.73,1.73,0,0,1,1.84,1.81,4.37,4.37,0,0,1-1.32,2.83L273.6,28v1.66H282V27.49H277Z"/><path class="cls-1" d="M288.79,15.78c-1.7,0-4.56.56-4.56,4.32v5.4c0,2.71,1.7,4.32,4.56,4.32s4.57-1.61,4.57-4.32V20.08C293.36,16.34,290.5,15.78,288.79,15.78Zm2,9.48c0,2-1.07,2.41-2,2.41s-2-.42-2-2.41V20.34c0-2,1.08-2.41,2-2.41s2,.42,2,2.41Z"/><path class="cls-2" d="M12.54,1.31h0L5.43,14.42l.17-.06c5.7-2.9,15.19-7.13,22.56-7.46l0-.12L16,.29A2.57,2.57,0,0,0,12.54,1.31Z"/><path class="cls-2" d="M4.93,15.29h0L.3,23.76a2.4,2.4,0,0,0-.19,1.89,2.48,2.48,0,0,0,1.24,1.46l9,4.69,0,0C20,26.12,25.6,20.45,24.93,17c-.3-1.51-1.8-2.52-4.35-2.94a32.74,32.74,0,0,0-10.57.6A66.57,66.57,0,0,1,23.2,12.35c5-.24,8.13.68,8.79,2.6.88,2.55-2.48,6.57-9.21,11a89.72,89.72,0,0,1-11.32,6.27l-.12.06,13,6.75a2.57,2.57,0,0,0,3.44-1l7.87-14.45-.09-.08A47.18,47.18,0,0,1,21,31.26c10.1-6.37,16.17-12.74,16.17-16.94a4.62,4.62,0,0,0-.05-.65A3.77,3.77,0,0,0,35,11C30.33,8.34,18.52,10,4.93,15.29Z"/><path class="cls-2" d="M81.49,26.71l-.73,7.61H73.37L76.23,4.38h7.38L82.08,20.43l8.08-8h6L89,19.55l7.86,14.77H89.27L84.06,24.2Z"/><path class="cls-2" d="M123.81,12.5,113.53,35.21a8.62,8.62,0,0,1-4,3.72c-1.82.92-5.57.89-6.08.89H98.73l.58-3.18h3.92c.52,0,1.84-.07,2-1.17A3.26,3.26,0,0,0,105,34.3L99.27,12.5h8l2.93,14.42,5.66-14.42Z"/><path class="cls-2" d="M71,25.88c.47-4.42-2.87-7.88-6.86-9-1.72-.46-4.24-1.08-4.24-1.08a24,24,0,0,1-5-1.48,2.5,2.5,0,0,1-1.28-2.65c.18-1.92,2.35-3,5.36-3H72.25l.45-5.2-11.35,0a37.32,37.32,0,0,0-7.08.73,13.18,13.18,0,0,0-5,2.67A10.21,10.21,0,0,0,46,14.21c0,5.39,4.11,7.44,6.91,8.1s5.18,1.21,6.46,1.54A9.7,9.7,0,0,1,62.47,25a3.08,3.08,0,0,1,.93,2.85c-.25,1.34-2.16,2.7-5.34,2.7l-13.18,0-.48,5.2H57.83a16.73,16.73,0,0,0,5-.85,13.69,13.69,0,0,0,5-2.55A8.78,8.78,0,0,0,71,25.88Z"/></g></g></svg>