
<!-- Generator: Adobe Illustrator 23.0.3, SVG Export Plug-In . SVG Version: 6.00 Build 0)  -->
<svg version="1.1" id="ƒŒƒCƒ„[_1" xmlns="http://www.w3.org/2000/svg" xmlns:xlink="http://www.w3.org/1999/xlink" x="0px" 	 y="0px" viewBox="0 0 109 54.1" style="enable-background:new 0 0 109 54.1;" xml:space="preserve">
<style type="text/css">
	.st0{clip-path:url(#SVGID_2_);}
	.st1{clip-path:url(#SVGID_4_);fill:#008CD6;}
	.st2{fill:#666666;}
</style>
<g id="Sky_x5F_logo_1_">
	<g>
		<defs>
			<rect id="SVGID_1_" width="109" height="35.1"/>
		</defs>
		<clipPath id="SVGID_2_">
			<use xlink:href="#SVGID_1_"  style="overflow:visible;"/>
		</clipPath>
		<g class="st0">
			<defs>
				<rect id="SVGID_3_" y="0" width="109" height="35.1"/>
			</defs>
			<clipPath id="SVGID_4_">
				<use xlink:href="#SVGID_3_"  style="overflow:visible;"/>
			</clipPath>
			<path class="st1" d="M11,1.2L11,1.2L4.8,12.7l0.1-0.1c5-2.6,13.4-6.3,19.9-6.6l0-0.1L14.1,0.3C13-0.3,11.6,0.1,11,1.2"/>
			<path class="st1" d="M4.3,13.5L4.3,13.5l-4.1,7.4C0,21.4-0.1,22,0.1,22.6c0.2,0.6,0.6,1,1.1,1.3L9.1,28l0,0 				c8.5-5,13.4-10,12.8-13c-0.3-1.3-1.6-2.2-3.8-2.6c-2.3-0.4-5.5-0.2-9.3,0.5c4.4-1.2,8.4-1.9,11.6-2c4.4-0.2,7.2,0.6,7.7,2.3 				c0.8,2.2-2.2,5.8-8.1,9.7c-2.8,1.9-6.2,3.7-10,5.5L10,28.4l11.4,5.9c1.1,0.6,2.4,0.2,3-0.9l6.9-12.7l-0.1-0.1 				c-3.7,2.9-8.2,5.4-12.8,6.8c8.9-5.6,14.2-11.2,14.2-14.9c0-0.2,0-0.4,0-0.6c-0.2-1-0.8-1.8-1.8-2.4C26.7,7.3,16.3,8.8,4.3,13.5" 				/>
			<polygon class="st1" points="71.7,23.5 71.1,30.2 64.6,30.2 67.1,3.9 73.6,3.9 72.3,18 79.4,11 84.6,11 78.3,17.2 85.3,30.2  				78.6,30.2 74,21.3 			"/>
			<path class="st1" d="M109,11l-9,20c-0.7,1.5-2.1,2.5-3.6,3.3c-1.6,0.8-4.9,0.8-5.4,0.8h-4.1l0.5-2.8h3.5c0.5,0,1.6-0.1,1.7-1 				c0-0.4-0.1-0.7-0.1-1L87.4,11h7L97,23.7l5-12.7H109z"/>
			<path class="st1" d="M62.5,22.8c0.4-3.9-2.5-6.9-6-7.9c-1.5-0.4-3.7-1-3.7-1s-3.3-0.7-4.4-1.3c-0.9-0.5-1.2-1.2-1.1-2.3 				c0.2-1.7,2.1-2.6,4.7-2.6h11.6L64,3.1c0,0-8.6,0-10,0c-1.4,0-4.8,0.2-6.2,0.6c-1.5,0.4-3.2,1.3-4.4,2.4c-1.6,1.4-2.9,3.9-2.8,6.4 				c0,4.7,3.6,6.6,6.1,7.1c2.5,0.6,4.6,1.1,5.7,1.4c1.1,0.3,2.3,0.6,2.7,1c0.5,0.4,1,1.3,0.8,2.5c-0.2,1.2-1.9,2.4-4.7,2.4l-11.6,0 				l-0.4,4.6h11.8c1.6,0,3-0.3,4.4-0.7c1.4-0.4,3.2-1.2,4.4-2.2C61.3,27,62.2,25.7,62.5,22.8"/>
		</g>
	</g>
</g>
<g>
	<path class="st2" d="M18.4,53.5l-1.5-3.3h-1.3v3.3h-1.7v-8.3h3c1.9,0,3.1,0.9,3.1,2.5c0,1.1-0.5,1.8-1.4,2.2l1.7,3.5H18.4z 		 M16.7,48.9c1,0,1.6-0.2,1.6-1.1c0-0.9-0.6-1.1-1.6-1.1h-1.1v2.2H16.7z"/>
	<path class="st2" d="M27,45.3v1.4h-3.5v1.9h3.1V50h-3.1v2.2H27v1.4h-5.2v-8.3H27z"/>
	<path class="st2" d="M33.1,47.8c-0.2-0.8-0.6-1.3-1.4-1.3c-1,0-1.5,0.7-1.5,2.2V50c0,1.5,0.5,2.2,1.5,2.2c0.8,0,1.2-0.4,1.4-1.3 		h1.6c-0.3,1.9-1.3,2.7-3,2.7c-1.9,0-3.2-1.1-3.2-3.7v-1.2c0-2.6,1.3-3.7,3.2-3.7c1.6,0,2.8,0.9,3,2.7H33.1z"/>
	<path class="st2" d="M41,53.5l-1.5-3.3h-1.3v3.3h-1.7v-8.3h3c1.9,0,3.1,0.9,3.1,2.5c0,1.1-0.5,1.8-1.4,2.2l1.7,3.5H41z M39.3,48.9 		c1,0,1.6-0.2,1.6-1.1c0-0.9-0.6-1.1-1.6-1.1h-1.1v2.2H39.3z"/>
	<path class="st2" d="M50.9,45.3v4.9c0,2.4-1.3,3.5-3.2,3.5s-3.2-1-3.2-3.5v-4.9h1.7v4.9c0,1.4,0.5,2,1.5,2s1.5-0.6,1.5-2v-4.9H50.9 		z"/>
	<path class="st2" d="M54.9,53.5h-1.7v-8.3h1.7V53.5z"/>
	<path class="st2" d="M62.8,45.3v1.4h-2.3v6.8h-1.7v-6.8h-2.3v-1.4H62.8z"/>
	<path class="st2" d="M68.2,49.8l2.3-4.5h1.6v8.3h-1.6v-5.1L68.7,52h-1l-1.8-3.6v5.1h-1.6v-8.3h1.6L68.2,49.8z"/>
	<path class="st2" d="M79.5,45.3v1.4H76v1.9h3.1V50H76v2.2h3.5v1.4h-5.2v-8.3H79.5z"/>
	<path class="st2" d="M87.5,45.3v8.3h-1.4l-3.2-5.1v5.1h-1.6v-8.3h1.4l3.2,5.2v-5.2H87.5z"/>
	<path class="st2" d="M95.2,45.3v1.4H93v6.8h-1.7v-6.8H89v-1.4H95.2z"/>
</g>
</svg>