<svg id="レイヤー_1" data-name="レイヤー 1" xmlns="http://www.w3.org/2000/svg" viewBox="0 0 298.61 115.33"><defs><style>.cls-1{fill:#14a0dc;}</style></defs><title>mv_logo</title><path class="cls-1" d="M78.06,1.9h0l-10.29,19,.24-.1c8.26-4.2,22-10.32,32.67-10.8l0-.17L83,.42A3.73,3.73,0,0,0,78.06,1.9Z"/><path class="cls-1" d="M67.05,22.15h0L60.34,34.4a3.45,3.45,0,0,0-.27,2.74,3.56,3.56,0,0,0,1.78,2.12l13.06,6.8,0,0c14-8.21,22-16.41,21.05-21.4-.43-2.18-2.61-3.65-6.31-4.25s-9-.31-15.29.87a94.64,94.64,0,0,1,19.1-3.36c7.25-.35,11.77,1,12.73,3.76,1.26,3.69-3.6,9.51-13.35,16A132.18,132.18,0,0,1,76.5,46.71l-.17.08,18.8,9.78a3.71,3.71,0,0,0,5-1.48l11.41-20.92-.14-.12A68.3,68.3,0,0,1,90.26,45.27c14.63-9.23,23.41-18.45,23.41-24.53a5.86,5.86,0,0,0-.07-.94,5.49,5.49,0,0,0-3-4C103.82,12.08,86.72,14.55,67.05,22.15Z"/><path class="cls-1" d="M177.92,38.69l-1,11h-10.7L170.3,6.34H181l-2.22,23.25,11.7-11.54h8.62L188.78,28.31l11.39,21.4h-11l-7.54-14.66Z"/><path class="cls-1" d="M239.21,18.1,224.32,51a12.53,12.53,0,0,1-5.86,5.39c-2.64,1.32-8.07,1.28-8.81,1.28h-6.77l.85-4.61h5.68c.74,0,2.66-.1,2.82-1.69a4.61,4.61,0,0,0-.22-1.7L203.68,18.1h11.54L219.48,39l8.19-20.89Z"/><path class="cls-1" d="M162.76,37.48c.68-6.4-4.15-11.41-9.94-13-2.48-.67-6.14-1.56-6.14-1.56s-5.47-1.09-7.19-2.15a3.6,3.6,0,0,1-1.86-3.84c.26-2.78,3.4-4.33,7.76-4.33h19.15l.65-7.53L148.75,5a54.52,54.52,0,0,0-10.25,1A19.1,19.1,0,0,0,131.21,10a14.8,14.8,0,0,0-4.66,10.61c0,7.81,6,10.77,10,11.73s7.5,1.76,9.35,2.23a14.33,14.33,0,0,1,4.47,1.63,4.45,4.45,0,0,1,1.35,4.12c-.36,1.94-3.13,3.9-7.74,3.9l-19.08,0-.7,7.53h19.45A24.43,24.43,0,0,0,151,50.53a20,20,0,0,0,7.22-3.7C160.74,44.49,162.24,42.34,162.76,37.48Z"/><path class="cls-1" d="M20.17,114.07l-7.25-11.39a8.66,8.66,0,0,1-1,0H7.34v11.35H3.2V83.23h8.23a13.63,13.63,0,0,1,5.63,1.11,8.81,8.81,0,0,1,3.88,3.26,9.25,9.25,0,0,1,1.41,5.18A11.06,11.06,0,0,1,21.09,98a8.15,8.15,0,0,1-3.86,3.62L25,114.07ZM16.61,97a6,6,0,0,0,1.47-4,6.27,6.27,0,0,0-.61-2.68,5.25,5.25,0,0,0-2-2.2,6.1,6.1,0,0,0-3.39-.88H7.34V98.71h4.47Q15.14,98.71,16.61,97Z"/><path class="cls-1" d="M49.69,83.23v4H33.78v9.39H48v4H33.78v9.51H50.29v4H29.64V83.23Z"/><path class="cls-1" d="M74.66,113.58a14.48,14.48,0,0,1-5,.83,16.33,16.33,0,0,1-8.33-2.09,14.37,14.37,0,0,1-5.55-5.63,16,16,0,0,1-1.94-7.81,17,17,0,0,1,2-8.21A14.45,14.45,0,0,1,61.27,85a15.09,15.09,0,0,1,7.87-2.07,16.55,16.55,0,0,1,4.86.68,16.87,16.87,0,0,1,4.06,1.79l-1.67,3.88a12.65,12.65,0,0,0-7.12-2.39,10.33,10.33,0,0,0-5.53,1.58,11.61,11.61,0,0,0-4.05,4.29,12,12,0,0,0-1.51,6,12.94,12.94,0,0,0,1.38,6,10.18,10.18,0,0,0,4,4.2,12.31,12.31,0,0,0,13.16-.83l1.75,3.71A18.54,18.54,0,0,1,74.66,113.58Z"/><path class="cls-1" d="M101.51,114.07l-7.25-11.39a8.77,8.77,0,0,1-1,0H88.67v11.35H84.54V83.23h8.23a13.63,13.63,0,0,1,5.63,1.11,8.81,8.81,0,0,1,3.88,3.26,9.25,9.25,0,0,1,1.41,5.18A11.06,11.06,0,0,1,102.43,98a8.19,8.19,0,0,1-3.86,3.62l7.76,12.42ZM98,97a6,6,0,0,0,1.47-4,6.27,6.27,0,0,0-.61-2.68,5.25,5.25,0,0,0-2-2.2,6.1,6.1,0,0,0-3.39-.88H88.67V98.71h4.48Q96.48,98.71,98,97Z"/><path class="cls-1" d="M115.72,106.84a7.21,7.21,0,0,0,2.66,2.6,7.43,7.43,0,0,0,3.73,1,7.94,7.94,0,0,0,3.87-.94,6.89,6.89,0,0,0,2.7-2.6,7.13,7.13,0,0,0,1-3.71V83.23h4.05v20a11,11,0,0,1-1.54,5.82A10.45,10.45,0,0,1,128,113a13.07,13.07,0,0,1-11.73,0,10.33,10.33,0,0,1-4.16-3.92,11.12,11.12,0,0,1-1.51-5.82v-20h4.14v19.92A7,7,0,0,0,115.72,106.84Z"/><path class="cls-1" d="M145.49,83.23v30.84h-4.14V83.23Z"/><path class="cls-1" d="M171.72,83.23v4h-8.27v26.88h-4.14V87.19h-8.06v-4Z"/><path class="cls-1" d="M208.15,82.25v31.82h-4.1v-20l-11.34,16.09h-.09L181.49,94.66v19.41h-4V82.25h0l15.19,21.49L208.1,82.25Z"/><path class="cls-1" d="M235.36,83.23v4H219.45v9.39h14.2v4h-14.2v9.51H236v4H215.31V83.23Z"/><path class="cls-1" d="M269.18,83.23v31.86h-.12l-22.65-23,.08,22h-4.18V82.29h.21l22.61,23.25-.08-22.31Z"/><path class="cls-1" d="M295.41,83.23v4h-8.27v26.88H283V87.19h-8.06v-4Z"/></svg>